<?xml version="1.0" encoding="UTF-8"?>
<svg id="Layer_1" xmlns="http://www.w3.org/2000/svg" version="1.1" viewBox="0 0 215 48">
  <!-- Generator: Adobe Illustrator 29.8.4, SVG Export Plug-In . SVG Version: 2.1.1 Build 6)  -->
  <path d="M35,9.7c.4.2,2.4,1.6,2.8,2,4.9,5.4-.3,11.4-1.9,16.9,1.6,2.2,3.6,4.1,5.5,6,.6,0,5.8-5.2,5.8-6.2,0-1.7-3.5-7.1-3.9-9.7-1.2-8.8,9.8-13.1,14.8-6.2s7.5,15.7,7.9,17.8c1.5,8.3-9,13.4-14.3,6.8-1.2-1.4-1.7-3.1-2.5-4.7l-6.3,6.9c-.4.4-1,.6-1.6.6-1.4-.1-7.2-7.9-7.7-7.5-1.2,5.7-6.7,9.5-12.3,6.7s-4.7-5.7-4.2-9.4,6-14.4,7.2-16.4c2.1-3.7,6.5-5.4,10.5-3.7ZM50.8,25.2c1.1-2.1,4.8-4.5,5.1-6.9.6-5-5.6-7.6-8.2-3.2-1.7,2.9.8,6,1.9,8.7.4.9-.3,1.8,1.2,1.3ZM30.3,13.2c-.8.2-2.2,1.4-2.5,2.1-2.2,4,2.6,7.4,5,10,.5,0,3.5-7.1,3.3-8.3-.3-2.8-3.1-4.4-5.8-3.8Z"/>
  <g>
    <path d="M79.3,37.6c-7.8,0-11.4-5-11.4-10.9s4.7-12.3,13.7-12.3,11.3,5,11.3,10.4-4.5,12.8-13.6,12.8ZM81,21.8c-2.5,0-3.9,2.4-3.9,4.5s.9,3.3,2.8,3.3,3.8-2.4,3.8-4.6-.9-3.3-2.8-3.3Z"/>
    <path d="M105.1,27.2c0,.2,0,.5,0,.7,0,1,.5,2,1.9,2s2.4-1.4,2.7-2.6l2.1-12.5h9.8l-2.3,13.5c-.9,4.9-4.5,9.2-13.5,9.2s-10.6-4-10.6-8.4,0-1.2.2-1.9l2.2-12.4h9.8l-2.1,12.5Z"/>
    <path d="M136.5,28.8h7.5l-1.4,8.1h-21.4l10.4-14.3h-7.9l1.4-7.9h21.3l-9.8,14.1Z"/>
    <path d="M156.1,28.9c0,1.4.6,2.9,2.7,2.9s2.4-1.3,2.8-2.2l9,1.1c-1.1,3.4-4.2,7-11.9,7s-11.5-5.2-11.5-10.7,4.6-12.8,12.9-12.8,11.4,5.2,11.4,10.3,0,1.9-.3,2.8h-14.9c-.1.5-.3,1.1-.3,1.8ZM162.8,22c0-.9-.3-2-2.5-2s-2.9,1.9-3.1,2.9h5.5c0-.2,0-.5,0-.9Z"/>
    <path d="M182,28.9c0,1.4.6,2.9,2.7,2.9s2.4-1.3,2.8-2.2l9,1.1c-1.1,3.4-4.2,7-11.9,7s-11.5-5.2-11.5-10.7,4.6-12.8,12.9-12.8,11.4,5.2,11.4,10.3,0,1.9-.3,2.8h-14.9c-.1.5-.3,1.1-.3,1.8ZM188.7,22c0-.9-.3-2-2.5-2s-2.9,1.9-3.1,2.9h5.5c0-.2,0-.5,0-.9Z"/>
  </g>
</svg>